HIERARCHY
ROOT Hips
{
 OFFSET 0.000000 0.000000 0.000000
 CHANNELS 6 Xposition Yposition Zposition Yrotation Xrotation Zrotation
 JOINT Chest
 {
  OFFSET 0.000000 9.585900 0.002600
  CHANNELS 3 Yrotation Xrotation Zrotation
  JOINT Chest2
  {
   OFFSET 0.000000 9.601200 -0.005300
   CHANNELS 3 Yrotation Xrotation Zrotation
   JOINT Chest3
   {
    OFFSET 0.000000 9.561800 0.000000
    CHANNELS 3 Yrotation Xrotation Zrotation
    JOINT Chest4
    {
     OFFSET 0.000000 9.552100 0.000000
     CHANNELS 3 Yrotation Xrotation Zrotation
     JOINT Neck
     {
      OFFSET 0.000000 14.453000 0.000000
      CHANNELS 3 Yrotation Xrotation Zrotation
      JOINT Head
      {
       OFFSET 0.000000 8.936500 -0.011300
       CHANNELS 3 Yrotation Xrotation Zrotation
       End Site
       {
        OFFSET 0.000000 17.073600 -0.006000
       }
      }
     }
     JOINT RightCollar
     {
      OFFSET -2.921100 9.558500 0.000000
      CHANNELS 3 Yrotation Xrotation Zrotation
      JOINT RightShoulder
      {
       OFFSET -13.519700 0.000000 0.000000
       CHANNELS 3 Yrotation Xrotation Zrotation
       JOINT RightElbow
       {
        OFFSET 0.000000 -29.696600 0.000000
        CHANNELS 3 Yrotation Xrotation Zrotation
        JOINT RightWrist
        {
         OFFSET 0.000000 -24.004700 0.000000
         CHANNELS 3 Yrotation Xrotation Zrotation
         End Site
         {
          OFFSET 0.000000 -17.728500 0.000000
         }
        }
       }
      }
     }
     JOINT LeftCollar
     {
      OFFSET 2.921100 9.558500 0.000000
      CHANNELS 3 Yrotation Xrotation Zrotation
      JOINT LeftShoulder
      {
       OFFSET 13.519700 0.000000 0.000000
       CHANNELS 3 Yrotation Xrotation Zrotation
       JOINT LeftElbow
       {
        OFFSET 0.000000 -29.696600 0.000000
        CHANNELS 3 Yrotation Xrotation Zrotation
        JOINT LeftWrist
        {
         OFFSET 0.000000 -24.004700 0.000000
         CHANNELS 3 Yrotation Xrotation Zrotation
         End Site
         {
          OFFSET 0.000000 -17.728500 0.000000
         }
        }
       }
      }
     }
    }
   }
  }
 }
 JOINT RightHip
 {
  OFFSET -7.771700 -0.012900 -0.001300
  CHANNELS 3 Yrotation Xrotation Zrotation
  JOINT RightKnee
  {
   OFFSET 0.000000 -40.869800 0.001200
   CHANNELS 3 Yrotation Xrotation Zrotation
   JOINT RightAnkle
   {
    OFFSET 0.000000 -39.717900 0.002100
    CHANNELS 3 Yrotation Xrotation Zrotation
    JOINT RightToe
    {
     OFFSET 0.000000 -4.965400 11.033500
     CHANNELS 3 Yrotation Xrotation Zrotation
     End Site
     {
      OFFSET 0.000000 -1.423100 5.872300
     }
    }
   }
  }
 }
 JOINT LeftHip
 {
  OFFSET 7.771700 -0.012900 -0.001300
  CHANNELS 3 Yrotation Xrotation Zrotation
  JOINT LeftKnee
  {
   OFFSET 0.000000 -40.869800 0.001200
   CHANNELS 3 Yrotation Xrotation Zrotation
   JOINT LeftAnkle
   {
    OFFSET 0.000000 -39.717900 0.002100
    CHANNELS 3 Yrotation Xrotation Zrotation
    JOINT LeftToe
    {
     OFFSET 0.000000 -4.965400 11.033500
     CHANNELS 3 Yrotation Xrotation Zrotation
     End Site
     {
      OFFSET 0.000000 -1.423100 5.872300
     }
    }
   }
  }
 }
}
MOTION
Frames: 12
Frame Time: 0.008333
0.000000 85.388000 0.000000 0.000000 -5.767877 0.000000 0.000000 11.653817 0.000000 0.000000 -5.885947 0.000000 0.000000 -0.000000 0.000000 0.000000 -0.000000 0.000000 0.000000 12.528835 0.000000 0.000000 0.711642 0.000000 0.000000 -0.000000 0.000000 0.000000 0.000000 -90.000000 0.000000 -2.309062 0.000000 0.000000 2.309062 0.000000 0.000000 -0.000000 0.000000 0.000000 -0.000000 90.000000 0.000000 -2.309062 0.000000 0.000000 2.309062 0.000000 0.000000 8.520406 0.000000 0.000000 1.905762 0.000000 -0.000000 -4.658285 0.000000 0.000000 -0.000000 0.000000 0.000000 8.520406 0.000000 0.000000 1.905762 0.000000 -0.000000 -4.658285 0.000000 0.000000 -0.000000 0.000000
11.278701 49.972152 48.943198 172.298233 -32.502022 -6.116849 6.863180 24.737099 7.451667 0.883776 4.179763 0.841144 1.493370 6.621761 1.341948 5.178398 20.523783 5.010733 -2.721896 19.333672 1.206468 -5.347197 0.209320 3.045337 1.481259 -5.025305 -7.701560 25.585051 -32.197314 -10.065097 121.490206 -48.669827 -138.802297 -0.727661 -14.971070 -24.430095 -19.807862 -2.443414 1.548202 -7.545610 -30.557418 3.866266 -142.573641 -43.582041 152.695310 25.509599 -28.176347 19.286847 0.066972 -48.362539 10.712795 -122.323305 85.479834 -110.402620 -1.768074 -12.438995 -4.532661 -0.190844 0.767212 -0.081016 -7.106568 -51.983218 16.115893 -151.649783 80.115188 -159.007347 0.323486 -16.770875 8.368170 -0.433513 -0.870733 -0.164830
11.277390 49.974700 48.940905 172.309979 -32.479657 -6.127304 6.815601 24.750793 7.458739 0.883853 4.170323 0.841276 1.482606 6.615627 1.340963 5.148702 20.519060 5.031698 -2.750466 19.236842 1.183273 -5.396083 0.029815 3.016350 1.444791 -5.063354 -7.687897 25.529139 -32.205826 -10.101358 121.533810 -48.619654 -138.825959 -0.731334 -14.919169 -24.391878 -19.645801 -2.515673 1.517174 -7.462836 -30.487858 3.814794 -142.554649 -43.536039 152.642689 25.500782 -28.117553 19.127071 0.084764 -48.394395 10.715479 -122.357413 85.484630 -110.435222 -1.793189 -12.402459 -4.510913 -0.179739 0.760513 -0.080329 -7.079527 -52.005990 16.066093 -151.888275 80.137383 -159.198803 0.309638 -16.774363 8.350052 -0.431469 -0.848935 -0.171206
11.274966 49.977597 48.938706 172.309604 -32.452177 -6.126741 6.789500 24.745356 7.461262 0.870358 4.170992 0.850811 1.447833 6.619384 1.359425 5.135655 20.504766 5.031525 -2.773317 19.140229 1.160586 -5.434685 -0.149432 2.986569 1.411388 -5.104912 -7.689664 25.435486 -32.191029 -10.106736 121.635271 -48.578327 -138.880196 -0.732641 -14.868029 -24.354817 -19.485256 -2.591729 1.491785 -7.362514 -30.396117 3.753148 -142.539368 -43.488581 152.594798 25.441881 -28.046414 18.962924 0.123427 -48.436123 10.716341 -122.483876 85.513997 -110.576189 -1.833327 -12.360987 -4.460863 -0.190240 0.777712 -0.091976 -7.057299 -52.034050 16.027344 -152.044234 80.152324 -159.325442 0.307359 -16.761367 8.346717 -0.429115 -0.843817 -0.183815
11.273218 49.981189 48.936752 172.320452 -32.421207 -6.137861 6.770482 24.722322 7.465735 0.846894 4.180512 0.873743 1.452760 6.611240 1.345818 5.102048 20.495857 5.076181 -2.792631 19.044752 1.139120 -5.467225 -0.326767 2.957888 1.374351 -5.151204 -7.705163 25.318395 -32.146975 -10.086694 121.780204 -48.545324 -138.963548 -0.738195 -14.831319 -24.325935 -19.331012 -2.670813 1.475724 -7.258168 -30.285814 3.688033 -142.498639 -43.442774 152.530749 25.362237 -27.965787 18.807570 0.125548 -48.477006 10.727458 -122.540734 85.528688 -110.635381 -1.875550 -12.299998 -4.444527 -0.187473 0.730933 -0.089206 -7.076814 -52.063384 16.023062 -152.132079 80.160856 -159.404914 0.303395 -16.735462 8.377025 -0.429066 -0.831190 -0.212465
11.271581 49.984600 48.936221 172.323047 -32.381759 -6.147434 6.738865 24.705763 7.481179 0.847294 4.174479 0.883617 1.414696 6.610039 1.381679 5.102486 20.486953 5.046241 -2.808405 18.946527 1.142966 -5.495403 -0.507012 2.929017 1.324040 -5.207442 -7.708804 25.201258 -32.070767 -10.056454 121.953662 -48.518796 -139.081242 -0.767152 -14.811461 -24.286490 -19.189845 -2.753171 1.488017 -7.165323 -30.161298 3.627465 -142.420419 -43.404407 152.441509 25.273008 -27.866616 18.668709 0.132507 -48.520296 10.740647 -122.537129 85.546632 -110.634339 -1.904371 -12.269461 -4.425438 -0.257049 0.735508 -0.093784 -7.102831 -52.097739 16.038045 -152.178380 80.167481 -159.449770 0.294476 -16.721370 8.385636 -0.421277 -0.827304 -0.216100
11.272942 49.989688 48.934842 172.337482 -32.353495 -6.181638 6.695781 24.715832 7.551649 0.857825 4.153337 0.860269 1.397720 6.605143 1.401404 5.106856 20.484606 4.995530 -2.820720 18.840277 1.199496 -5.515315 -0.696839 2.895519 1.255287 -5.277143 -7.672575 25.102029 -31.965167 -10.031108 122.168227 -48.513430 -139.213646 -0.790831 -14.805237 -24.259555 -19.062255 -2.837559 1.549062 -7.086299 -30.030776 3.576839 -142.308681 -43.386420 152.321982 25.178898 -27.745971 18.551808 0.133512 -48.553588 10.769516 -122.448955 85.549593 -110.537406 -1.901575 -12.223705 -4.428628 -0.207272 0.751622 -0.080458 -7.167911 -52.118704 16.085904 -152.146517 80.164208 -159.419094 0.311646 -16.710799 8.387575 -0.415956 -0.825287 -0.218212
11.271841 49.994492 48.933656 172.354358 -32.323484 -6.204244 6.671911 24.696058 7.575557 0.835547 4.157325 0.885587 1.408456 6.597294 1.382146 5.041724 20.471088 5.121443 -2.830896 18.735099 1.097718 -5.524032 -0.900345 2.854445 1.260769 -5.329975 -7.795779 25.027526 -31.840902 -10.020557 122.326790 -48.488111 -139.374473 -0.778382 -14.802977 -24.299853 -18.858326 -2.963665 1.460009 -7.017517 -29.903982 3.540249 -142.184297 -43.402875 152.182286 25.074382 -27.601586 18.455206 0.140099 -48.585227 10.777780 -122.326495 85.542741 -110.401873 -1.900894 -12.190617 -4.442437 -0.206046 0.730856 -0.056175 -7.283052 -52.128428 16.151795 -152.081903 80.168691 -159.395136 0.352955 -16.707428 8.385849 -0.422396 -0.817673 -0.224712
11.270909 49.998639 48.933842 172.374623 -32.287116 -6.233073 6.644246 24.669682 7.603823 0.806526 4.161001 0.912502 1.424366 6.590047 1.361295 4.976362 20.461108 5.212929 -2.831536 18.620468 1.037784 -5.523447 -1.117968 2.805385 1.266012 -5.387355 -7.886778 24.977735 -31.706315 -10.026871 122.442638 -48.464580 -139.508805 -0.806220 -14.818520 -24.319619 -18.639756 -3.080865 1.408202 -6.959102 -29.785151 3.518550 -142.060314 -43.455652 152.032903 24.963877 -27.430981 18.364540 0.132834 -48.623697 10.803046 -122.237339 85.549516 -110.314096 -1.915393 -12.158921 -4.435684 -0.214599 0.733711 -0.046901 -7.372960 -52.154990 16.201789 -151.874883 80.157872 -159.201807 0.404142 -16.696562 8.370782 -0.412076 -0.820363 -0.221594
11.269881 50.002227 48.934820 172.397708 -32.247757 -6.266453 6.588416 24.650882 7.643992 0.798880 4.156160 0.921199 1.371214 6.588530 1.416957 4.954988 20.457106 5.191069 -2.831385 18.498347 1.004520 -5.517422 -1.346474 2.750374 1.262616 -5.450379 -7.952766 24.946792 -31.560578 -10.048471 122.519414 -48.435654 -139.602231 -0.828293 -14.835185 -24.344824 -18.415155 -3.191165 1.383433 -6.910689 -29.670245 3.511248 -141.935767 -43.540655 151.870923 24.861472 -27.236951 18.261991 0.111595 -48.663906 10.832498 -122.168995 85.553021 -110.249859 -1.918639 -12.128469 -4.427608 -0.205248 0.735385 -0.043906 -7.449733 -52.188054 16.249846 -151.760475 80.149178 -159.093901 0.430211 -16.693133 8.362022 -0.401278 -0.817234 -0.215784
11.266124 50.006426 48.933472 172.410814 -32.224091 -6.279805 6.503728 24.662345 7.701009 0.822525 4.139003 0.886904 1.342647 6.583935 1.443021 4.919471 20.451640 5.203515 -2.830912 18.372138 0.970547 -5.510722 -1.582517 2.694033 1.253958 -5.516280 -8.016863 24.919773 -31.400888 -10.077660 122.549383 -48.389437 -139.660633 -0.843502 -14.848517 -24.366787 -18.182770 -3.296535 1.361518 -6.868051 -29.554211 3.519444 -141.808295 -43.652721 151.691843 24.770213 -27.027115 18.144057 0.118055 -48.690105 10.846229 -122.054546 85.546848 -110.138388 -1.974384 -12.110152 -4.398812 -0.211819 0.759919 -0.060699 -7.493388 -52.206223 16.267380 -151.656522 80.141821 -158.997577 0.452831 -16.683734 8.357845 -0.390243 -0.817639 -0.208336
11.258692 50.009941 48.931499 172.430035 -32.200636 -6.277550 6.446467 24.654178 7.714642 0.812990 4.134064 0.893572 1.349584 6.581982 1.422036 4.869208 20.433945 5.269515 -2.831751 18.242975 0.938160 -5.506992 -1.823835 2.641091 1.233324 -5.583701 -8.077606 24.880667 -31.225442 -10.103969 122.546789 -48.321309 -139.685746 -0.846250 -14.855079 -24.381153 -17.945655 -3.389892 1.343950 -6.828293 -29.434681 3.545413 -141.676277 -43.789091 151.496523 24.680169 -26.818086 18.026480 0.139463 -48.716600 10.834676 -121.961273 85.534735 -110.044137 -2.074483 -12.106420 -4.355818 -0.217900 0.766021 -0.077360 -7.525830 -52.220944 16.259378 -151.618829 80.145502 -158.975224 0.451347 -16.679279 8.360894 -0.380658 -0.812091 -0.204123
